<svg version="1.1" xmlns="http://www.w3.org/2000/svg" xmlns:xlink="http://www.w3.org/1999/xlink" viewBox="0 0 172 172"><g fill="none" fill-rule="nonzero" stroke="none" stroke-width="1" stroke-linecap="butt" stroke-linejoin="miter" stroke-miterlimit="10" stroke-dasharray="" stroke-dashoffset="0" font-family="none" font-weight="none" font-size="none" text-anchor="none" style="mix-blend-mode: normal"><path d="M0,172v-172h172v172z" fill="none"></path><g fill="#e74c3c"><path d="M42.98656,161.58594c-2.45906,0 -3.70875,-1.27656 -4.23281,-2.0425c-0.67187,-0.98094 -1.29,-2.66062 -0.36281,-5.14656c0.84656,-2.23063 15.54719,-38.02813 20.9625,-51.19688h-36.50969l-8.93594,17.17313c-1.58563,3.10406 -3.42656,3.42656 -7.00094,3.46687h-2.44563c-1.41094,0 -2.6875,-0.57781 -3.50719,-1.59906c-0.83313,-1.00781 -1.12875,-2.33812 -0.81969,-3.73562c0.29563,-1.43781 5.71094,-27.82906 6.665,-32.49188c-2.09625,-9.91687 -6.58438,-31.32281 -6.73219,-32.92187c-0.16125,-1.80063 0.49719,-2.94281 1.08844,-3.58781c0.80625,-0.88687 1.92156,-1.34375 3.30562,-1.34375h2.41875c1.505,0.04031 5.29438,0.13438 7.02781,3.46688l8.93594,17.17312h36.50969c-5.41531,-13.16875 -20.11594,-48.96625 -20.9625,-51.19687c-0.92719,-2.4725 -0.3225,-4.16563 0.36281,-5.13313c0.52406,-0.76594 1.78719,-2.05594 4.23281,-2.05594l0.63156,0.02687c1.24969,0.1075 5.10625,0.48375 8.08937,0.81969c3.655,0.40312 5.18688,2.33812 6.02,3.38625c0.79281,0.9675 35.81094,45.64719 42.47594,54.15312h50.24281c15.14406,0 21.55375,12.30875 21.55375,17.2c0,4.89125 -6.40969,17.2 -21.55375,17.2h-50.24281c-7.48469,9.55406 -41.66969,53.17219 -42.32812,53.97844c-0.9675,1.22281 -2.51281,3.15781 -6.16781,3.56094c-2.98312,0.33594 -6.85312,0.71219 -8.08937,0.81969zM42.98656,154.73281l0.01344,3.41312l0.01344,-3.44c-0.01344,0 -0.02687,0 -0.02687,0z"></path></g></g></svg>

